<svg fill="none" height="48" viewBox="0 0 231 48" width="231" xmlns="http://www.w3.org/2000/svg" xmlns:xlink="http://www.w3.org/1999/xlink"><filter id="a" color-interpolation-filters="sRGB" filterUnits="userSpaceOnUse" height="54" width="48" x="0" y="-3"><feFlood flood-opacity="0" result="BackgroundImageFix"/><feBlend in="SourceGraphic" in2="BackgroundImageFix" mode="normal" result="shape"/><feColorMatrix in="SourceAlpha" result="hardAlpha" type="matrix" values="0 0 0 0 0 0 0 0 0 0 0 0 0 0 0 0 0 0 127 0"/><feOffset dy="-3"/><feGaussianBlur stdDeviation="1.5"/><feComposite in2="hardAlpha" k2="-1" k3="1" operator="arithmetic"/><feColorMatrix type="matrix" values="0 0 0 0 0 0 0 0 0 0 0 0 0 0 0 0 0 0 0.1 0"/><feBlend in2="shape" mode="normal" result="effect1_innerShadow_3046_38744"/><feColorMatrix in="SourceAlpha" result="hardAlpha" type="matrix" values="0 0 0 0 0 0 0 0 0 0 0 0 0 0 0 0 0 0 127 0"/><feOffset dy="3"/><feGaussianBlur stdDeviation="1.5"/><feComposite in2="hardAlpha" k2="-1" k3="1" operator="arithmetic"/><feColorMatrix type="matrix" values="0 0 0 0 1 0 0 0 0 1 0 0 0 0 1 0 0 0 0.1 0"/><feBlend in2="effect1_innerShadow_3046_38744" mode="normal" result="effect2_innerShadow_3046_38744"/><feColorMatrix in="SourceAlpha" result="hardAlpha" type="matrix" values="0 0 0 0 0 0 0 0 0 0 0 0 0 0 0 0 0 0 127 0"/><feMorphology in="SourceAlpha" operator="erode" radius="1" result="effect3_innerShadow_3046_38744"/><feOffset/><feComposite in2="hardAlpha" k2="-1" k3="1" operator="arithmetic"/><feColorMatrix type="matrix" values="0 0 0 0 0.0627451 0 0 0 0 0.0941176 0 0 0 0 0.156863 0 0 0 0.24 0"/><feBlend in2="effect2_innerShadow_3046_38744" mode="normal" result="effect3_innerShadow_3046_38744"/></filter><filter id="b" color-interpolation-filters="sRGB" filterUnits="userSpaceOnUse" height="42" width="34.5" x="6.75" y="5.25"><feFlood flood-opacity="0" result="BackgroundImageFix"/><feColorMatrix in="SourceAlpha" result="hardAlpha" type="matrix" values="0 0 0 0 0 0 0 0 0 0 0 0 0 0 0 0 0 0 127 0"/><feMorphology in="SourceAlpha" operator="erode" radius="1.5" result="effect1_dropShadow_3046_38744"/><feOffset dy="2.25"/><feGaussianBlur stdDeviation="2.25"/><feComposite in2="hardAlpha" operator="out"/><feColorMatrix type="matrix" values="0 0 0 0 0.141176 0 0 0 0 0.141176 0 0 0 0 0.141176 0 0 0 0.1 0"/><feBlend in2="BackgroundImageFix" mode="normal" result="effect1_dropShadow_3046_38744"/><feBlend in="SourceGraphic" in2="effect1_dropShadow_3046_38744" mode="normal" result="shape"/></filter><linearGradient id="c" gradientUnits="userSpaceOnUse" x1="24" x2="26" y1=".000001" y2="48"><stop offset="0" stop-color="#fff" stop-opacity="0"/><stop offset="1" stop-color="#fff" stop-opacity=".12"/></linearGradient><linearGradient id="d" gradientUnits="userSpaceOnUse" x1="24" x2="24" y1="9.75" y2="38.25"><stop offset="0" stop-color="#fff" stop-opacity=".8"/><stop offset="1" stop-color="#fff" stop-opacity=".5"/></linearGradient><linearGradient id="e" gradientUnits="userSpaceOnUse" x1="24" x2="24" y1="0" y2="48"><stop offset="0" stop-color="#fff" stop-opacity=".12"/><stop offset="1" stop-color="#fff" stop-opacity="0"/></linearGradient><clipPath id="f"><rect height="48" rx="12" width="48"/></clipPath><g filter="url(#a)"><g clip-path="url(#f)"><rect fill="#0A0D12" height="48" rx="12" width="48"/><path d="m0 0h48v48h-48z" fill="url(#c)"/><g filter="url(#b)"><path clip-rule="evenodd" d="m24 15.375c-3.1066 0-5.625-2.5184-5.625-5.625h-3.75c0 5.1777 4.1973 9.375 9.375 9.375s9.375-4.1973 9.375-9.375h-3.75c0 3.1066-2.5184 5.625-5.625 5.625zm-5.625 22.875c0-3.1066 2.5184-5.625 5.625-5.625s5.625 2.5184 5.625 5.625h3.75c0-5.1777-4.1973-9.375-9.375-9.375s-9.375 4.1973-9.375 9.375zm-3-14.25c0-3.1066-2.5184-5.625-5.625-5.625v-3.75c5.1777 0 9.375 4.1973 9.375 9.375s-4.1973 9.375-9.375 9.375v-3.75c3.1066 0 5.625-2.5184 5.625-5.625zm17.25 0c0-3.1066 2.5184-5.625 5.625-5.625v-3.75c-5.1777 0-9.375 4.1973-9.375 9.375s4.1973 9.375 9.375 9.375v-3.75c-3.1066 0-5.625-2.5184-5.625-5.625z" fill="url(#d)" fill-rule="evenodd"/></g></g><rect height="46" rx="11" stroke="url(#e)" stroke-width="2" width="46" x="1" y="1"/></g><g fill="#0A0D12"><path d="m70.469 33.3481c-6.438 0-10.469-4.263-10.469-11.049 0-6.699 4.263-11.107 10.672-11.107 5.365 0 9.222 3.074 9.889 7.888h-4.959c-.638-2.146-2.465-3.364-5.046-3.364-3.48 0-5.597 2.465-5.597 6.554 0 4.031 2.146 6.554 5.597 6.554 2.639 0 4.582-1.305 5.162-3.422h4.872c-.754 4.785-4.756 7.946-10.121 7.946z"/><path d="m90.4024 23.0649c-4.64 0-8.004 3.074-8.004 7.656 0 .8336.1114 1.6164.3215 2.3392h4.9007c-.4648-.6134-.7272-1.4212-.7272-2.3682 0-2.175 1.421-3.625 3.509-3.625 2.059 0 3.48 1.45 3.48 3.625 0 .947-.2623 1.7548-.7248 2.3682h4.8986c.2099-.7228.3212-1.5056.3212-2.3392 0-4.582-3.364-7.656-7.975-7.656z"/><path d="m116.248 39.9601v-21.46h4.205l.232 1.769c.812-1.334 2.639-2.233 4.698-2.233 4.031 0 6.844 2.813 6.844 7.482 0 4.582-2.494 7.888-6.815 7.888-2.001 0-3.857-.754-4.698-1.856v8.41zm4.495-14.21c0 2.175 1.45 3.625 3.538 3.625 2.117 0 3.451-1.479 3.451-3.625s-1.334-3.625-3.451-3.625c-2.088 0-3.538 1.45-3.538 3.625z"/><path d="m141.526 33.3771c-4.379 0-7.511-3.19-7.511-7.656 0-4.524 3.045-7.685 7.424-7.685 4.553 0 7.395 2.987 7.395 7.714v1.131l-10.527.058c.261 1.914 1.334 2.813 3.306 2.813 1.682 0 2.871-.609 3.19-1.653h4.089c-.522 3.219-3.393 5.278-7.366 5.278zm-.058-11.716c-1.769 0-2.755.783-3.103 2.523h6.032c0-1.537-1.131-2.523-2.929-2.523z"/><path d="m161.455 18.5001v4.205h-1.421c-2.552 0-4.089 1.131-4.089 4.002v6.293h-4.466v-14.471h4.205l.232 2.146c.609-1.421 1.885-2.378 3.828-2.378.522 0 1.102.058 1.711.203z"/><path d="m174.395 18.5001h4.089v14.5h-4.205l-.232-1.856c-.841 1.102-2.436 2.262-4.727 2.262-4.321 0-6.815-3.306-6.815-7.888 0-4.669 2.813-7.482 6.844-7.482 2.059 0 4.002.899 4.814 2.233zm-.406 7.25c0-2.175-1.45-3.625-3.538-3.625-2.117 0-3.451 1.479-3.451 3.625s1.334 3.625 3.451 3.625c2.088 0 3.538-1.45 3.538-3.625z"/><path d="m190.393 29.1141.522 3.596c-.841.406-1.943.638-3.161.638-2.987 0-5.075-1.363-5.075-5.423v-5.713h-2.204v-3.712h2.204v-4.495h4.466v4.495h3.219v3.712h-3.219v4.785c0 1.827.725 2.378 1.769 2.378.435 0 .957-.087 1.479-.261z"/><path d="m194.974 16.2381c-1.421 0-2.552-1.131-2.552-2.552s1.131-2.523 2.552-2.523c1.392 0 2.523 1.102 2.523 2.523s-1.131 2.552-2.523 2.552zm-2.204 16.762v-14.5h4.466v14.5z"/><path d="m204.704 33.0001-5.655-14.5h4.814l1.769 5.075c.725 2.117 1.305 3.944 1.421 4.611.174-.841.812-2.726 1.537-4.611l1.943-5.075h4.64l-6.061 14.5z"/><path d="m223.004 33.3771c-4.379 0-7.511-3.19-7.511-7.656 0-4.524 3.045-7.685 7.424-7.685 4.553 0 7.395 2.987 7.395 7.714v1.131l-10.527.058c.261 1.914 1.334 2.813 3.306 2.813 1.682 0 2.871-.609 3.19-1.653h4.089c-.522 3.219-3.393 5.278-7.366 5.278zm-.058-11.716c-1.769 0-2.755.783-3.103 2.523h6.032c0-1.537-1.131-2.523-2.929-2.523z"/><path d="m98.01 18.5298c-.2156.7325-.33 1.526-.33 2.3708 0 4.582 3.364 7.627 8.004 7.627 4.611 0 7.975-3.045 7.975-7.627 0-.8448-.114-1.6383-.33-2.3708h-4.888c.461.609.723 1.4087.723 2.3418 0 2.204-1.421 3.654-3.48 3.654-2.088 0-3.509-1.45-3.509-3.654 0-.9331.262-1.7328.725-2.3418z"/></g></svg>